<mxfile host="app.diagrams.net" modified="2023-11-27T15:56:40.188Z" agent="Mozilla/5.0 (Windows NT 10.0; Win64; x64; rv:120.0) Gecko/20100101 Firefox/120.0" version="21.6.8" etag="qZCOqbwBSKamgU-ZvB-K" type="github">
  <diagram name="Page-1" id="2rYfwvYi0Gv8CtG47TRM">
    <mxGraphModel>
      <root>
        <mxCell id="0" />
        <mxCell id="1" parent="0" />
      </root>
    </mxGraphModel>
  </diagram>
</mxfile>
